<svg xmlns="http://www.w3.org/2000/svg" xmlns:xlink="http://www.w3.org/1999/xlink" viewBox="0 0 2141.1 2252.14"><defs><style>.cls-1{fill:none;}.cls-2{clip-path:url(#clip-path);}.cls-3{fill:#fff;}.cls-4{fill:#ff6eff;}</style><clipPath id="clip-path" transform="translate(151.32 -76.49)"><rect class="cls-1" width="1920.66" height="2327.11"/></clipPath></defs><g id="레이어_2" data-name="레이어 2"><g id="레이어_1-2" data-name="레이어 1"><g class="cls-2"><path class="cls-3" d="M-57,493.72C-32.9,585.53,55.24,645.5,142.85,682c162.38,67.59,359.66,79.6,506.37-17.42,65.6-43.38,116.57-105.11,166.39-166-53.9,127.83-72,277.67-15.06,404.18S1002.91,1120.1,1137.11,1085c43.61-11.42,87.61-40,96.89-84.14-76.64,69.16,17.45,154.63-14.7,252.72-16.16,49.31-178.1,106.27-167.64,157.1,16.39,79.66,79,141.29,143.71,190.5,51.77,39.35,114,75.79,178,64.49-245.27-49.35-507.09-12.07-728.83,103.79-47.71,24.92-98.21,59.86-106.8,113-90.55-73.1-216.53-82-332.67-74.4-75.75,4.92-152.89,16-220.23,51s-124,97.82-134.74,173" transform="translate(151.32 -76.49)"/><path class="cls-4" d="M-58.41,494.12C-42,555.24,2.58,602.54,54.12,637,109.75,674.09,174,699,238.56,715.66c131.09,33.76,278.3,30.53,396.92-40.67,73-43.81,127.94-110.29,181.19-175.34l-2.51-1.46c-53.8,128.28-73.74,282-12.11,411.35,49.73,104.42,160.82,186.28,279,184.52,60-.89,139.48-26.36,154.39-92.82a1.51,1.51,0,0,0-2.5-1.46c-22.24,20.44-32.94,46.58-31.1,76.72s12.18,59,18.06,88.42c3.39,17,5.53,34.3,4.66,51.65-.72,14.44-2.64,31.64-10.36,44.22-11.72,19.1-33.26,32.52-51.43,44.71-22.46,15.09-45.74,29-67.68,44.82-15.91,11.49-35.19,25.16-42.94,44-3.36,8.17-2.4,15.42-.36,23.81a224.36,224.36,0,0,0,19.66,51.34c17.34,32.92,41.79,61.66,68.66,87.18,31.85,30.23,67.49,58.33,105.55,80.32,38.84,22.45,82.89,37.68,128.15,30.15,1.46-.25,1.41-2.61,0-2.9a1111.65,1111.65,0,0,0-368.73-10.8c-122.23,16.81-241.77,53.77-351.73,109.82-49.25,25.11-106.73,59.49-117,118.81l2.5-.66c-82.51-66-192-79.55-294.44-76.69-108.35,3-228.49,16.71-314.36,89.37-41.59,35.19-73.19,83.08-81.34,137.59-.28,1.89,2.61,2.7,2.89.8,7.26-48.58,33.24-91.83,68.49-125.43,38.82-37,87.61-60.79,138.9-75.21,54.2-15.23,110.85-20.83,166.94-23.43,51.21-2.38,103-1.21,153.52,7.84,56.83,10.17,111.89,31,157.28,67.28.78.63,2.3.57,2.51-.66,9.28-53.52,58.45-86.84,103.12-110.53a1067.63,1067.63,0,0,1,167.92-71,1121.41,1121.41,0,0,1,358.22-55.4A1095.15,1095.15,0,0,1,1373,1667.1v-2.9c-42.56,7.09-84.28-6.61-121.17-27.18-34.19-19.06-65.82-43.43-95.13-69.28-28.35-25-54.67-53-74.44-85.33a236.32,236.32,0,0,1-23-49c-3.67-11.12-9.1-24.38-5.09-36.09,6.59-19.27,27.34-33.57,43.06-44.87,21.3-15.32,43.81-28.83,65.61-43.4,17.61-11.76,36.67-24.2,49.9-41,15.63-19.9,16.35-50.6,14.32-74.68-2.85-33.75-14.56-65.72-20.14-99-2.61-15.59-3.64-31.78,0-47.3,4.24-17.91,14.67-32.81,28.09-45.15l-2.51-1.46c-13.75,61.28-84.82,86.87-140.69,90.22-57.3,3.43-114.27-14.14-162.67-44.26-49.56-30.84-91.21-74.88-118.57-126.49-31.55-59.5-44.33-128-43.46-194.94,1-77.72,19.93-154.54,49.9-226,.57-1.37-1.59-2.58-2.51-1.46-46.74,57.1-94.42,115.13-155,158.18C604.4,694.83,540,718.53,473.26,728.21c-68,9.87-137.78,5.59-204.84-8.62C203.48,705.82,139,683.34,81.33,650.24,19.87,615-36.57,563.9-55.51,493.32a1.51,1.51,0,0,0-2.9.8Z" transform="translate(151.32 -76.49)"/><path class="cls-3" d="M1967.58,297.79a943.11,943.11,0,0,1-150.88-69.88C1757,193.52,1697.2,142.23,1690,78c-35,95.83-129.69,174.52-238.12,192.78s-226.16-21.32-296-99.51c12.78,106.42-32.44,217.38-118.2,290s-210,24-324.72,4c53.82,76.15,94.69,165,85.35,255.33S762.21,885.74,664,897.15c85.43,34.33,124.55,170.2,97.9,252,394,104.4,383.93,266.92,451.19,346.06,201.51-79.67,544-255,753.8-195.85" transform="translate(151.32 -76.49)"/><path class="cls-4" d="M1968,296.34a948.86,948.86,0,0,1-143.67-65.82c-39.2-22.14-77.68-49-104.69-85.61-14.6-19.79-25.15-42.4-28.13-67a1.5,1.5,0,0,0-2.94-.4c-28.23,76.4-91.22,137.63-165.2,170.15-78.89,34.69-170.18,33.45-249.93,2-44.18-17.41-84.66-44.2-116.5-79.56-.81-.9-2.71-.24-2.56,1.06,9.92,85.18-16.91,171.87-69.66,239.05-26.08,33.21-58.2,64.93-99.07,78.5-40,13.29-83.49,10.78-124.61,4.55-49.67-7.52-98.23-20.83-147.68-29.54-1.15-.21-2.52,1-1.7,2.2,45.62,64.78,84,140,86.37,220.79.94,32.19-3.79,65.53-12,96.63-6.88,25.86-17.64,51.36-35.8,71.38-22.4,24.69-53.55,36.91-86.13,40.87a1.51,1.51,0,0,0-.4,3c35,14.35,60.51,44.62,77.34,77.69a258.42,258.42,0,0,1,27.71,113.38c.22,20-2.1,40-8.2,59.09a1.53,1.53,0,0,0,1,1.85c107.84,28.67,220,67.85,306.22,141.35a381,381,0,0,1,67.06,74.23c14.84,21.64,27.19,44.74,39.26,68,11.16,21.52,22.24,43.49,38,62.1a1.45,1.45,0,0,0,1.46.39c94.8-37.53,187.52-80.07,282.65-116.81,101.44-39.17,206.89-75.42,315.51-87.45,51.5-5.7,104.62-5.6,154.85,8.41a1.5,1.5,0,0,0,.8-2.89c-46.55-13-95.64-14.1-143.52-9.74-55.18,5-109.58,17.18-162.81,32.31-112,31.85-219.69,77.15-326.7,122.6-24.42,10.38-48.83,20.79-73.32,31q-16.56,6.92-33.19,13.65l-7.59,3c-1,.42-5.65,3-6.46,2.83-1.37-.35-4.1-5.09-4.94-6.2-12.7-16.81-22.27-35.76-31.94-54.4-11.6-22.35-23.42-44.57-37.5-65.48a381,381,0,0,0-60.74-70c-74-66.78-169.82-106-263.93-134.87-17.35-5.32-34.81-10.25-52.35-14.91l1,1.84c11.61-36.32,10.2-76.3,2-113.19-8.44-38.14-24.95-75.86-51.34-105-13.85-15.31-30.52-27.78-49.67-35.63l-.39,2.95c28.53-3.46,56.28-12.8,78.22-31.91,20-17.46,33.15-41.2,41.64-66.1,10-29.36,15.15-61.25,16.85-92.18,2.26-40.89-5.65-81.79-19.57-120.14C765.07,544,741.29,502.9,714.22,464.47l-1.69,2.2c46.1,8.12,91.41,20.19,137.59,27.93,40.93,6.86,83.88,10.82,124.59.48,42-10.67,74.46-38.44,102.21-70.67a345.2,345.2,0,0,0,64-110.37,319.68,319.68,0,0,0,16.41-142.82l-2.56,1.06c57.78,64.18,143.52,100.26,229.16,104s169.49-27.68,232.07-86.23c33.14-31,59.65-69.08,75.41-111.73l-3-.4c5.32,43.85,33.39,80.09,65.93,108.2,37.86,32.7,83,56.56,128,77.85q41.49,19.65,84.75,35.23c1.82.66,2.6-2.24.79-2.89Z" transform="translate(151.32 -76.49)"/><path class="cls-3" d="M1988.32,1282.38a950.26,950.26,0,0,1-218.53-91.49c-59.69-34.39-119.5-82.33-126.72-146.61-35,95.83-129.69,171.18-238.12,189.43s-226.16-21.32-296-99.5c12.78,106.42-32.44,217.38-118.21,290s-210,105.28-324.72,85.24c53.82,76.14,94.7,165,85.36,255.33S670.21,1944.27,572,1955.68c70,56.31,99.82,151.2,73.17,233,108.54-12.92,219.22-21.42,327-4S1185.77,2248,1253,2327.11c201.52-79.67,434.1-91.28,643.86-32.12l-4-98.31c-1.47-36-2.88-72.58,7.39-107.32s34.17-67.94,70.33-82" transform="translate(151.32 -76.49)"/><path class="cls-4" d="M1988.72,1280.93A958.56,958.56,0,0,1,1818,1215.11c-48.54-24.33-98.65-52-135.31-92.93-19.68-22-34.5-48.28-38.09-77.9a1.51,1.51,0,0,0-3-.4c-28.2,76.3-91.82,136.14-166,167.59-79.07,33.53-169.51,32.62-249.13,1.24-44.18-17.41-84.66-44.2-116.5-79.56a1.51,1.51,0,0,0-2.56,1.06c9.91,85.18-16.91,171.87-69.66,239-54.36,69.22-134.41,114.09-220,131.9a407,407,0,0,1-151.36,2.91c-1.15-.2-2.52,1-1.69,2.2,45.62,64.78,84,140,86.37,220.79,2,67.35-25.74,133-77,177.22-28.83,24.88-64.23,41.29-102.1,45.91-1.12.14-2.2,1.65-1.06,2.57,67.41,54.75,99.56,147.8,72.79,231.54a1.5,1.5,0,0,0,1.44,1.9c91.64-10.87,184.35-18.71,276.54-10.33,80.46,7.31,160.77,27.68,231.33,67.88,37.16,21.17,71.06,47.89,98.91,80.43a1.44,1.44,0,0,0,1.46.39,998.07,998.07,0,0,1,246.88-62,1033.46,1033.46,0,0,1,254,.95,997.16,997.16,0,0,1,142.24,28.93,1.51,1.51,0,0,0,1.89-1.44l-3.57-87.07c-1.15-27.86-2.83-55.92.16-83.72,5.18-48.14,28.76-96.47,76-115.36,1.77-.71,1-3.61-.8-2.89-32.26,12.9-55.61,40.39-67.82,72.47-16,42-12.22,88.37-10.42,132.31l3.46,84.26,1.9-1.45a1011.74,1011.74,0,0,0-252.3-37.12A1031.69,1031.69,0,0,0,1389.77,2283a977.23,977.23,0,0,0-122,36.89c-3.47,1.3-11.57,6.18-15.09,4.54-1.49-.69-3.22-3.69-4.34-4.94-1.71-1.91-3.45-3.79-5.2-5.65q-9.8-10.41-20.46-19.95a377.89,377.89,0,0,0-43.26-33.4c-65.23-43.4-141.91-68-219.05-79.08-92.67-13.27-186.79-8.17-279.52,1.78q-17.83,1.92-35.64,4.05l1.45,1.9c20.75-64.91,6.73-137.2-33.13-192a226.9,226.9,0,0,0-40.43-42.52l-1.06,2.56c66.67-8.13,123.4-51.91,155-110.25,36.2-66.77,32.57-144.42,7.18-214.33-16.09-44.3-39.86-85.42-66.93-123.85l-1.69,2.2c88.23,15.13,181.38.41,260.56-41.44,77.58-41,138.62-109.45,167.85-192.48a319.84,319.84,0,0,0,16.41-142.82l-2.56,1.06c57.78,64.17,143.52,100.26,229.16,104a324.66,324.66,0,0,0,232.06-84.21c33.26-30.41,59.76-68,75.41-110.4l-2.94-.4c6.23,51.37,43.88,90.61,84,119.86,48.38,35.33,104,62.07,159.38,84.53a971.23,971.23,0,0,0,103,35.16,1.51,1.51,0,0,0,.8-2.9Z" transform="translate(151.32 -76.49)"/></g></g></g></svg>